/* XPM */
static char *_fe93fa73a834e68f0f3993ff569726ebNv8435wcYPbtzL2[] = {
/* columns rows colors chars-per-pixel */
"32 32 20 1 ",
"  c None",
". c black",
"X c #301800",
"o c #402000",
"O c #603000",
"+ c #804000",
"@ c #A05000",
"# c #C06000",
"$ c #A5765E",
"% c #C06060",
"& c #E07070",
"* c #CA8F72",
"= c #A0A0A0",
"- c gray69",
"; c #E5A282",
": c #C0C0C0",
"> c #D0D0D0",
", c gray88",
"< c gray94",
"1 c white",
/* pixels */
"                                ",
"                                ",
"                                ",
"                                ",
"                                ",
"                                ",
"                                ",
"       *;OO         OOOO        ",
"       ;;;+OO      OO++OO+      ",
"      *;*;OOOOOOOOO++OO++++     ",
"      ;;&;;+++++++@++++++@@  ,  ",
" ,<1 **&&&;++@+@@@@@@@@@@@@ ,<, ",
" ,,<11;%&&;;@@#@+++@+@#++@@+<<, ",
"  ,,<<<<,&&;@@@@@@@@+@@@@+++>,, ",
"   ,,,,,,&&;+++@@OOO++@@++++,>  ",
"  1,,::::&&;+O+@++++++++OO++>>< ",
" 1,:===%%&;;+++OOOO+OO+OO+OO:-: ",
" ,:= **%%&*;OO+OO+OOo+ooOO+O=== ",
"     *%*%;;OOOOooOoooOOOOOOO =  ",
"     $**;*;OoooOooOOOOOooOoO    ",
"   ..**%;;oOOOOOoooXoOoOOooO    ",
"  ....$*;;oOooXoXXXoXXXooOoo.   ",
"  .....;;ooXXX..........XXo..   ",
"   ..........................   ",
"    ............   .........    ",
"       .......                  ",
"                                ",
"                                ",
"                                ",
"                                ",
"                                ",
"                                "
};
