/* XPM */
static char *b26a1e5aacd2495595d477b60955aa63XG6wqUEFy0Onkck9[] = {
/* columns rows colors chars-per-pixel */
"32 32 10 1 ",
"  c None",
". c black",
"X c #0D0F04",
"o c #141806",
"O c #1E240A",
"+ c #29310D",
"@ c #3D4913",
"# c #667A20",
"$ c #7B9327",
"% c #8FAB2D",
/* pixels */
"                                ",
"                                ",
"            ........            ",
"          ..O+@##%OO..          ",
"         .O#@O+++@%+OO.         ",
"        .O#O+%OO@O@%+@O.        ",
"       .O+O@OO#O+O+O$O@O.       ",
"      .O+O@O+OXXXX+O#O+#O.      ",
"     .O+O#%@XooooooXO+O%@O.     ",
"    .O+#%+OXooOoOoOoXOO#O@O.    ",
"    .O%@OOXoOOoooooOoX#OO@O.    ",
"   .O@OO+XoOooooooooOoXO@O%O.   ",
"   .O%+OOoOooOOoooOooOo+OO$O.   ",
"  .O%OO@XOooOoXXXXXOooOXO#O%O.  ",
"  .O@O%OoOooXXXXXXXXOoOX#OO%O.  ",
"  .O@#OXOoOXXXoXXXoXXOoOX+++O.  ",
" .O+%OOXOooXoXXXXXXoXOooXOOO%O. ",
" .O$++XooOXXXXXXXXXXXXOoOX++$O. ",
" .O#OOXoOoXoXXXXoXXXoXXooXOO#O. ",
" .O@@+XoOXXoXXoXXoXXoXXOoXO#+O. ",
".O@OOOoOXoXXXoXXXXoXXoXoOo@OO%O.",
".O#++@oOXoXXXXOOOOXXXoXoOoX+@@O.",
".O@OO#oOXoXXXXXXXXXXXoXoooXOO%O.",
".O+O#XooXoXX++++++++XoXoOoX+@#O.",
".O+%+XoOXoXXXXXXXXXXXoXoOoXOO$O.",
".O%OOXoOXo++++++++++++ooOoXO$+O.",
".O%@+XoOooooooooooooooooOoX#O+O.",
".O@OOXoo@@@@@@@@@@@@@@@@oo#+@+O.",
".O%@+Xoooooooooooooooooooo@OO%O.",
".O+OOXo##################oX+@+O.",
".O%@+X....................XOO%O.",
"......                    ......"
};
