/* XPM */
static char *_b57753f8790472a9da2bdb50d7c2ac7igf85SZFHib2bT1a[] = {
/* columns rows colors chars-per-pixel */
"32 32 19 1 ",
"  c None",
". c black",
"X c #1A1207",
"o c #103200",
"O c #302310",
"+ c #401000",
"@ c #601800",
"# c #4D3716",
"$ c #440323",
"% c #5F012F",
"& c #1B5900",
"* c #6A4A19",
"= c #437801",
"- c #62594B",
"; c #802000",
": c #887E6F",
"> c #739900",
", c #B8A890",
"< c #C7C5A3",
/* pixels */
"             ....               ",
"         .  .>>>=.  .           ",
"        .>..=>>>>=..>.          ",
"         .>.>>>>=&.=.           ",
"          .=oo=oo&=.            ",
"          .>>==>>=&.            ",
"         .=&%%$$&&&..           ",
"       ..o>%%$$$$&&.O.          ",
"     ..*=o>%<$$<$&oo#X..        ",
"    .::O#&o=>>>>=oo#XXOX..      ",
"   .,,::O#=&&oooo&&*XOX-::.     ",
"  .,,,,:OO#==&oo&=*XOXO:::,.    ",
" .:,,,,::OX#*=>>=#XO#O#-:,,:.   ",
" .,:,,:..XOXX#XOX*O#O#OX:,,,:.  ",
" .:,:...XOXOX*:::*XO#O#.::,,,.  ",
" .::::..##O#O*:,:#O#O#. .::,,.  ",
"  .::,&.-##O##,,,*#O#X. .-:::.  ",
"   .,&>>X-:#*,,,,,*#X-..:,:-.   ",
"    .>>=&@:,,,,,,,,:-+..,,,.    ",
"    .&&&&@@:,,,,,,::++.&>,:.    ",
"     ...:::;;@:,,:@@+-.&=&.     ",
"      .:,,:@;;;;;;;@::-.&.      ",
"      .,,,,,,:;;;;:,::::.       ",
"     .:,,,,,,,,,,,,,::::...     ",
"     .,,,,,,,,,,,,,,,::.......  ",
"      .:,,,,,,,,,,,,:@......... ",
"      .;;@:,,,,,,:@@;;@........ ",
"      .@;;@++....+@;;;@.......  ",
"     .O##@++.....++@;@.......   ",
"     .##OXX.......O####O....    ",
"     .OOXXX.......OO####...     ",
"     .........   ........       "
};
