/* XPM */
static char *_6891f9556584da1c81a8317c9b5d5bfffTMng8zubwEzidZ[] = {
/* columns rows colors chars-per-pixel */
"32 32 190 2 ",
"   c #66451A",
".  c #64401A",
"X  c #7B5115",
"o  c #785016",
"O  c #5C3A1C",
"+  c #64421A",
"@  c #57361D",
"#  c #835D15",
"$  c #6C441A",
"%  c #885F16",
"&  c #5F3E1B",
"*  c #764C16",
"=  c #704818",
"-  c #9D751F",
";  c #82641A",
":  c #643F1A",
">  c #4E3020",
",  c #936515",
"<  c #6C4918",
"1  c #855B13",
"2  c #835B15",
"3  c #7F5615",
"4  c #785318",
"5  c #987220",
"6  c #714C17",
"7  c #90681A",
"8  c #5B391D",
"9  c #5C341C",
"0  c #5F3B1B",
"q  c #55371F",
"w  c #8E671A",
"e  c #765116",
"r  c #5F361B",
"t  c #66411A",
"y  c #694419",
"u  c #7A571A",
"i  c #6C461A",
"p  c #503220",
"a  c #8A6018",
"s  c #704E18",
"d  c #895D17",
"f  c #66401A",
"g  c #8A681E",
"h  c #815A17",
"j  c #694119",
"k  c #603E20",
"l  c #5F411B",
"z  c #5B361D",
"x  c #815D17",
"c  c #7A5618",
"v  c #7F5A19",
"b  c #5C3F1C",
"n  c #6C4518",
"m  c #805818",
"M  c #55321F",
"N  c #92691A",
"B  c #62411E",
"V  c #845F18",
"C  c #4A2D22",
"Z  c #9B731D",
"A  c #57381D",
"S  c #6C481A",
"D  c #5D391B",
"F  c #66431A",
"G  c #8B6317",
"H  c #5F391B",
"J  c #452A23",
"K  c #8D661B",
"L  c #7F5213",
"P  c #7B5315",
"I  c #7B4F15",
"U  c #472A21",
"Y  c #A57D27",
"T  c #785216",
"R  c #8B6315",
"E  c #87661F",
"W  c #724B1E",
"Q  c #8D671F",
"!  c #7E5A1A",
"~  c #B18321",
"^  c #705018",
"/  c #805A18",
"(  c #785718",
")  c #F8A900",
"_  c #754E1B",
"`  c #67451D",
"'  c #7A591A",
"]  c #886218",
"[  c #765316",
"{  c #55331F",
"}  c #72521A",
"|  c #9E711A",
" . c #5B371D",
".. c #6A431A",
"X. c #936D1B",
"o. c #76591A",
"O. c #846218",
"+. c #BF9121",
"@. c #B58621",
"#. c #A88028",
"$. c #704A18",
"%. c #57371D",
"&. c #5C3C1C",
"*. c #694819",
"=. c #946D1A",
"-. c #5F3D1B",
";. c #4A2F22",
":. c #A98027",
">. c #BA881E",
",. c #6C4318",
"<. c #956F1D",
"1. c #715017",
"2. c #67421B",
"3. c #57321D",
"4. c #6C4A1A",
"5. c #A47B24",
"6. c #6B451D",
"7. c #7C581A",
"8. c #7D5413",
"9. c #7D5B1F",
"0. c #8C6116",
"q. c #A1741D",
"w. c #986D1A",
"e. c #8F6B1F",
"r. c #83621D",
"t. c #B48624",
"y. c #7D5B1B",
"u. c #7C5B1A",
"i. c #7D5515",
"p. c #90691E",
"a. c #57331D",
"s. c #7F5E19",
"d. c #987520",
"f. c #69431B",
"g. c #8F681D",
"h. c #947022",
"j. c #5F3E1D",
"k. c #9E7722",
"l. c #8A6318",
"z. c #7D5E1B",
"x. c #785416",
"c. c #5F3A1F",
"v. c #7B5717",
"b. c #5B3A1D",
"n. c #825816",
"m. c #7B5917",
"M. c #957329",
"N. c #DBA013",
"B. c #7F5813",
"V. c #97701D",
"C. c #523320",
"Z. c #926D1E",
"A. c #76541A",
"S. c #6B471D",
"D. c #996A19",
"F. c #5C371C",
"G. c #916A1F",
"H. c #825F1A",
"J. c #775719",
"K. c #8D6A1F",
"L. c #7D5715",
"P. c #412A23",
"I. c #916A1D",
"U. c #926816",
"Y. c #926C1A",
"T. c #9C7822",
"R. c #906C1E",
"E. c #A98223",
"W. c #4E2E20",
"Q. c #8F6B1D",
"!. c #A87F26",
"~. c #AB8025",
"^. c #C6951E",
"/. c #835815",
"(. c #412923",
"). c #5B3C1D",
"_. c #946B1A",
"`. c #64451A",
"'. c #907022",
"]. c #4A2E22",
"[. c #503020",
"{. c #64441A",
"}. c #85621D",
"|. c #9D7725",
" X c #926516",
".X c #57341D",
"XX c #8A641A",
"oX c #A67C22",
"OX c #503320",
"+X c white",
/* pixels */
"  . X o O + @ # $ % # & $ * o & = - ; = : : > , < * 1 2 3 4 <   ",
"@ O 5 @ 6 7 @ . 8 9 $ 0 o q o + & w e r = t y u t & @ t t e y i ",
"p 1 a s d : f & 9 g - % t t & g h * + j k l 1 z l x * c e e v & ",
"6 0 1 b i n y y 6 m 4 M g # @ 5 N 4 & % B l V e i % p C c Z *   ",
"A S a &   D F G & H 0 6 g o J & o 4 K L P N 3 Z c r v I * U Y : ",
"a n @ = M 0 T H 8 & j @ K o R & & E , 0 5 W Q c e h c ! ! ! y ~ ",
"@ F @ ^ 3   3 3 # / @ O 0 ( , : ) _ = h E V b % p ` 2 ' < ] v Z ",
"q y n 3 : i [ a n { } | / 2 ; v  .{ ..r ; m X.o.y P * & x : O.4 ",
"K +.i y @.n i /   T 9 t & ; 1 #.1 @ = p $.E V & @ %.] 5 V i D # ",
"q $.e &.@ [ s m *.& t =.0 O.v v &.& -.;.3 + 2 :.>.] ,.c ~ <.v 1.",
"2.9 & + 3.6 3 G i 2 % M 0 4.v &./ c 0 2 s : I @ @ 5.$.3 5.6.7.v ",
"i a 3 6 8 3 8 q $ 8.y @ o n o o 8 . & @ T @ 9.q P <.4 y < v t % ",
"3 G } D 3 M O H &.0.i q.w.6 / e : e.e.r.o % % { t.<.% y.+ e d @ ",
"$.q ,.% u.@ i.@ @ 6 M p.] 6 ] a a.O.K K : ; P @ y + <.s.d.e v K ",
"0 4 8 M G i i 0.V n =.#.@ 2 $ T f.=.e y e @ 2 h i v % g.4 w.@ g.",
"c 6 v c : v i 3 0.0.O =.2 h.j.& & t.& $.0 h V k.i h ' E s l.3 z.",
": c 7 6 6 4 x.3 0.e = c.} 2 ] v./ *.b.n.0 &.* 2 o 4 1.t.{ % v 2 ",
"4 4 8 M S &.& H 0.m.=.0.& 2 p.o 2 & ; y . s K ,.. % % % M.v 3 K ",
"G i N % A N ^ &.G v N.y B.V.B.0 e t ; &.e v E z 1.6 % v - d.3 ` ",
"F G } = 0.6 & s y 0.y w.O 3 ; Q i.e.e.e.& & x C.2 Z.-.A.s 3 t & ",
"m.S.2 & & G G ^ $ F : o O 6 S & & D.Z.$ e.@ h.P v i h.4 s % 2 g ",
"c S G + @ X T G F # &.& y F.: O P G.& X.* = K @ i o.H.J.3 w.2 2 ",
": $.e i.7.K X q.*.K.0 =./ & & c ^ n L.P.: @ t.& p.1 k.M $.w.y Z.",
"K 2 $.K 7 ) g.@   T I./ U.w.3 #.$ ] = p @ ^ J.  & x & $.h k.P Y.",
"X d K $.J.^ n # 8 &.H.N.T.R.& F : { 2 & =.m Z h. .+ & l.6 E N 1.",
"@ F @ ^ G 4 & ^ z ] @ = 3 & F & s =.= E.Z.t = ( W.x % Q.J.!.+ ~.",
"$.: X u M e T 6 z M P 0 O & R N.& | L.F !.!.4 2.p.h.4 =.H.H.^ 4 ",
"A S $.O   X M 3 ^.F & R.F /.(.: o ! L.n ).).E.v.d Z.v 6 Y.p J._.",
"6 0 < b `.F 6 y e F # e '.w.X.5 y   2 F R.+ Q.3.y J.p ].H.& * M ",
"[.g.O @ &.* {.@ / G F / j 6 2 T h }.Z.j |.D.+ }.i.i.B.B.f 3.s & ",
"o.O 5 @ O ] y 3 :  X$ .XX.e H.XXv $.: 3.L.%.O oX^ - l.h.f Z.F.9 ",
"& . M : y V z U.y & A %.p.3 2 t v O F F.).j OXy F & P 4.h.6 O w."
};
