/* XPM */
static char *_2ea816d284e41fc9a4449d36872b228VcXtxTasDBI6jFd2[] = {
/* columns rows colors chars-per-pixel */
"32 32 167 2 ",
"   c None",
".  c black",
"X  c #1D3F1D",
"o  c #2D3F1C",
"O  c #0C2C27",
"+  c #0E2A2E",
"@  c #122926",
"#  c #11282F",
"$  c #0D3C24",
"%  c #0D332A",
"&  c #103A22",
"*  c #2E2C25",
"=  c #2E272D",
"-  c #2E2D2C",
";  c #203927",
":  c #2D3F20",
">  c #2D332D",
",  c #303C27",
"<  c #0C4C1E",
"1  c #10461E",
"2  c #174B1E",
"3  c #2F4B1D",
"4  c #205F13",
"5  c #2F5F11",
"6  c #20531E",
"7  c #2F581E",
"8  c #27680E",
"9  c #2A7E0E",
"0  c #3C7E0E",
"q  c #236C11",
"w  c #2D6B11",
"e  c #2C6513",
"r  c #306513",
"t  c #3E6711",
"y  c #336C12",
"u  c #257314",
"i  c #2B7212",
"p  c #277912",
"a  c #2C7C13",
"s  c #327412",
"d  c #3B7312",
"f  c #367D11",
"g  c #3B7C12",
"h  c #0D4424",
"j  c #0C4B24",
"k  c #0C4B28",
"l  c #134527",
"z  c #124C24",
"x  c #1C4C24",
"c  c #154B29",
"v  c #17452C",
"b  c #0D5225",
"n  c #0E5329",
"m  c #0E5D23",
"M  c #125422",
"N  c #1E5022",
"B  c #115B24",
"V  c #185820",
"C  c #18502F",
"Z  c #135D28",
"A  c #114830",
"S  c #274623",
"D  c #2E4524",
"F  c #2E4C24",
"G  c #2F442A",
"H  c #2D4A29",
"J  c #324427",
"K  c #304C23",
"L  c #304128",
"P  c #304E2A",
"I  c #2D5327",
"U  c #205D27",
"Y  c #2D5128",
"T  c #2E592A",
"R  c #305226",
"E  c #305D23",
"W  c #305429",
"Q  c #2F5132",
"!  c #2D5B35",
"~  c #2F683F",
"^  c #2D643C",
"/  c #4E670E",
"(  c #486F0E",
")  c #44740E",
"_  c #456E10",
"`  c #4A6D12",
"'  c #516F10",
"]  c #457311",
"[  c #4E7312",
"{  c #457B12",
"}  c #497C12",
"|  c #437119",
" . c #487619",
".. c #517C11",
"X. c #4C762F",
"o. c #2F5144",
"O. c #305F48",
"+. c #2D6243",
"@. c #326743",
"#. c #20830E",
"$. c #2D810E",
"%. c #258412",
"&. c #2A8411",
"*. c #208811",
"=. c #2A8B11",
"-. c #328312",
";. c #3B8211",
":. c #338A10",
">. c #3E8911",
",. c #279510",
"<. c #2C9210",
"1. c #27A00E",
"2. c #468312",
"3. c #4A8412",
"4. c #448B12",
"5. c #498B14",
"6. c #4B8419",
"7. c #439215",
"8. c #4A9313",
"9. c #449A11",
"0. c #44A011",
"q. c #418934",
"w. c #488D32",
"e. c #4C8634",
"r. c #4B9032",
"t. c #719728",
"y. c #6F9D39",
"u. c #77AF2F",
"i. c #7BB627",
"p. c #72BE30",
"a. c #7BBB34",
"s. c #6FC12D",
"d. c #72C025",
"f. c #76C02F",
"g. c #77D735",
"h. c #849C39",
"j. c #83A126",
"k. c #83AE2B",
"l. c #90AA2C",
"z. c #9DA42A",
"x. c #83BD2B",
"c. c #90B827",
"v. c #90B32F",
"b. c #93BA2F",
"n. c #9DB92A",
"m. c #81A533",
"M. c #8DAE30",
"N. c #89BB34",
"B. c #95B330",
"V. c #90BC30",
"C. c #98BB35",
"Z. c #A0A92F",
"A. c #A4BB2C",
"S. c #80C628",
"D. c #8BC12C",
"F. c #88CF28",
"G. c #93CA2E",
"H. c #80D52A",
"J. c #93D02D",
"K. c #8BC536",
"L. c #86CB37",
"P. c #9CC030",
"I. c #92CD39",
"U. c #92D533",
"Y. c #9FD535",
"T. c #81B848",
"R. c #97C156",
/* pixels */
"                                                                ",
"                                                                ",
"                                                                ",
"                                                                ",
"                                                                ",
"                                                                ",
"                                                                ",
"                                                                ",
"                                                                ",
"                      . .       .                               ",
"                    . v ] .   . ] .                             ",
"                  . . . F = . } .   . .                         ",
"            .   . T } . . x f k w . f.v..                       ",
"          . I..   . @.$.Y $.-.] y M.D..                         ",
"            . K..   . j F 3 X.Z e ` .     . . .   .             ",
"      . . . Q R d.. d Y = b < &.S.u .   . Y H ] . U..           ",
"    . $ +.r Y [ 9.4 5 s J O R z 3.] _ . * V i.T B..             ",
"      . l % &.A d x.c.z 2 z w 1 o 2.| # C T.;.K.. . . .         ",
"        . Y O Y B.K.3 5.M >.D.h U.} z M -.} p . . Z 3.e..       ",
"      . . . k # z -.C.) G.p Y F.y w ,.z p k a & > g u .         ",
"    . M 5.. . P ; k &.h.5.4.V.m.$.D.p 2.b.q G o.2.0.m $..       ",
"    . . l 3.^ 3.3 z P.c ( Z.J.l.u._ 8 p.2.4.D 3.F w 4.u.x..     ",
"  . @.. z N.:.z X 5.n b ] 2 s g.j.=.k.a 5.<.%.l 5.) a.j.y .     ",
"    . z - C y.F @.E > 6 : #.5.1. .0 { 4.%.g 6.7.{ / 2.:..       ",
"    . . h + V I ! @ 3 l } f g ;.q.%.K 5.` i 2.p.8.:.8.. Y..     ",
"  . k z F R & h U J v l $ s x c y T.} - =.s t.r.H :.3.D.4.{ .   ",
". T S % H 0 c R ( 7 $ @ D l B ] b.5.h ` Z.G.g.* 2.7.5.0  .t a . ",
"  . . L - Z l > Y s F R Y 8.] ;.7.y } w.$.A.n.k.a -.7.. . . .   ",
"      . . . % $ . z x T u R 4.. . . . ' . 3.L.*.. . .           ",
"            . .   . c . . . .         .   . . .                 ",
"                    .                                           ",
"                                                                "
};
